<svg id="Layer_1" data-name="Layer 1" xmlns="http://www.w3.org/2000/svg" viewBox="0 0 1240 620"><defs><style>.cls-1,.cls-2{fill:#137749;}.cls-1{opacity:0.2;}.cls-3{font-size:88px;fill:#1c2321;font-family:IBMPlexSans-Bold, IBM Plex Sans;font-weight:700;}.cls-4{letter-spacing:-0.01em;}.cls-5{letter-spacing:0em;}.cls-6{letter-spacing:0em;}.cls-7{letter-spacing:-0.03em;}</style></defs><rect class="cls-1" width="1240" height="620"/><path class="cls-2" d="M636.61,221.78,564.54,351.57H707.87Zm28.11,105.36H607.84l28.6-53Z"/><path class="cls-2" d="M519.59,250.68a103,103,0,0,0-29-72.05c-17.86-18.41-42.66-30.38-70-30.38H341.43V180.9l80.23-.16c18.1,0,34.34,10.1,46.3,22.31a68.85,68.85,0,0,1,0,95.27c-11.88,12.21-28.2,20.76-46.3,20.76H373.91v-114H341.43V351.57h79.26c27.31,0,52.11-10.42,70-28.83A103.29,103.29,0,0,0,519.59,250.68Z"/><path class="cls-2" d="M659.7,148.08H612.6L500.45,351.8h38.46l97.28-176.44,97.2,176.44h38.46Z"/><path class="cls-2" d="M721.22,148.08v32.65h72.63V351.88h32.24V180.73h72.8V148.08Z"/><text class="cls-3" transform="translate(265.5 479.46)">Ima<tspan class="cls-4" x="166.76" y="0">g</tspan><tspan class="cls-5" x="214.8" y="0">e N</tspan><tspan class="cls-4" x="348.74" y="0">o</tspan><tspan class="cls-6" x="397.84" y="0">t </tspan><tspan class="cls-7" x="452.31" y="0">F</tspan><tspan class="cls-6" x="500.98" y="0">ound</tspan></text></svg>