<svg width="30" height="30" viewBox="0 0 30 30" fill="none" xmlns="http://www.w3.org/2000/svg">
<path d="M28.3339 21.56V25.56C28.3354 25.9313 28.2593 26.2989 28.1106 26.6391C27.9618 26.9793 27.7436 27.2848 27.47 27.5358C27.1964 27.7868 26.8733 27.9779 26.5216 28.0969C26.1698 28.2159 25.7971 28.2601 25.4272 28.2266C21.3243 27.7808 17.3832 26.3788 13.9206 24.1333C10.699 22.0862 7.96768 19.3549 5.92056 16.1333C3.6672 12.6549 2.26489 8.69463 1.82723 4.5733C1.79391 4.20459 1.83773 3.83298 1.9559 3.48213C2.07406 3.13128 2.26399 2.80889 2.51358 2.53546C2.76318 2.26204 3.06697 2.04358 3.40562 1.894C3.74426 1.74441 4.11035 1.66698 4.48056 1.66663H8.48056C9.12764 1.66026 9.75495 1.8894 10.2456 2.31134C10.7362 2.73328 11.0567 3.31923 11.1472 3.95997C11.3161 5.24006 11.6292 6.49694 12.0806 7.70663C12.26 8.18387 12.2988 8.70252 12.1924 9.20114C12.0861 9.69976 11.839 10.1574 11.4806 10.52L9.78723 12.2133C11.6853 15.5514 14.4492 18.3152 17.7872 20.2133L19.4806 18.52C19.8431 18.1615 20.3008 17.9144 20.7994 17.8081C21.298 17.7018 21.8167 17.7406 22.2939 17.92C23.5036 18.3714 24.7605 18.6845 26.0406 18.8533C26.6883 18.9447 27.2798 19.2709 27.7026 19.77C28.1254 20.269 28.3501 20.9061 28.3339 21.56Z" stroke="black" stroke-width="2" stroke-linecap="round" stroke-linejoin="round"/>
</svg>
