<?xml version="1.0" encoding="utf-8"?>
<!-- Generator: Adobe Illustrator 24.1.2, SVG Export Plug-In . SVG Version: 6.00 Build 0)  -->
<svg version="1.1" id="Layer_1" xmlns="http://www.w3.org/2000/svg" xmlns:xlink="http://www.w3.org/1999/xlink" x="0px" y="0px"
	 viewBox="0 0 300 300" style="enable-background:new 0 0 300 300;" xml:space="preserve">
<style type="text/css">
	.st0{fill:#137749;}
	.st1{fill:#FFFFFF;}
</style>
<g>
	<path class="st0" d="M130.71,35.89c8.57-14.85,30-14.85,38.57,0l59.45,102.97l59.45,102.97c8.57,14.85-2.14,33.41-19.29,33.41H150
		H31.1c-17.14,0-27.86-18.56-19.29-33.41l59.45-102.97L130.71,35.89z"/>
	<g>
		<path class="st1" d="M268.68,270.12H31.32c-6.13,0-11.61-3.17-14.67-8.47c-3.06-5.3-3.06-11.64,0-16.94L135.33,39.15
			c3.06-5.3,8.55-8.47,14.67-8.47c6.13,0,11.61,3.17,14.67,8.47L283.35,244.7c3.06,5.3,3.06,11.64,0,16.94
			C280.29,266.95,274.8,270.12,268.68,270.12z M150,38.37c-3.35,0-6.34,1.73-8.01,4.63L23.31,248.55c-1.67,2.9-1.67,6.36,0,9.25
			c1.67,2.9,4.67,4.63,8.01,4.63h237.36c3.35,0,6.34-1.73,8.02-4.63c1.67-2.9,1.67-6.36,0-9.25L158.01,42.99
			C156.34,40.1,153.34,38.37,150,38.37z"/>
	</g>
	<g>
		<path class="st1" d="M130.82,224.56c0-11.32,8.17-20.05,19.18-20.05c11.02,0,19.18,8.73,19.18,20.05
			c0,11.25-8.17,19.97-19.18,19.97C138.98,244.53,130.82,235.8,130.82,224.56z"/>
		<path class="st1" d="M150,77.22c10.31,0,18.38,8.88,17.4,19.15l-9.15,95.37h-16.5l-9.15-95.37C131.62,86.1,139.69,77.22,150,77.22
			z"/>
	</g>
</g>
</svg>
