<svg id="Layer_1" data-name="Layer 1" xmlns="http://www.w3.org/2000/svg" viewBox="0 0 300 300"><defs><style>.cls-1{fill:#137749;}.cls-2{fill:#fff;}.cls-3{fill:#055e31;}.cls-4{fill:#e7f1ed;}</style></defs><path class="cls-1" d="M27,111.64l115.91-86a13.31,13.31,0,0,1,15.94.05l114.15,86Z"/><rect class="cls-1" x="23.14" y="110.51" width="253.71" height="166.47" rx="8.08"/><path class="cls-2" d="M265.4,121.53l-26.66,20.64-.35.27-21.63,16.74-15.62,12.09-32.53,25.18-6.26,4.85-3.48-2.12a16.88,16.88,0,0,0-17.71.06l-3.46,2.15-5.48-4.22-33.65-25.9L82.86,159.18,61.12,142.44l-4-3.06L34,121.53Z"/><path class="cls-3" d="M267.91,265.79,162.35,201.3l-3.48-2.12a16.88,16.88,0,0,0-17.71.06l-3.46,2.15L34,265.79l98.27-68.62,8.64-6a16.86,16.86,0,0,1,20.14,0l7.61,5.31Z"/><rect class="cls-2" x="33.95" y="47.16" width="231.45" height="75.37"/><rect class="cls-4" x="57.14" y="72.7" width="181.6" height="12.09"/><rect class="cls-4" x="57.14" y="101.53" width="181.6" height="12.09"/><polygon class="cls-4" points="238.74 130.35 238.74 142.16 238.39 142.44 61.12 142.44 57.14 139.38 57.14 130.35 238.74 130.35"/><polygon class="cls-4" points="216.76 159.18 201.14 171.26 98.57 171.26 82.86 159.18 216.76 159.18"/></svg>